# xmcd
#
# Track frame offsets: 
#        225
#        17492
#        31650
#        45886
#        63132
#        74646
#        92765
#        109890
#        123837
#        139695
#        154945
#        175028
#        190935
#        204008
#
# Disc length: 2849 seconds
#
# Revision: 0
# Processed by: cddbd v1.4PL0 Copyright (c) Steve Scherf et al.
# Submitted via: ExactAudioCopy v0.95a3
#
DISCID=ac0b1e0e
DTITLE=Schovanky - Master serie
DYEAR=1999
DGENRE=Country
TTITLE0=Svet se porad meni
TTITLE1=Michael Row Row The Boat Ashore
TTITLE2=Mejdan ve stodole
TTITLE3=Chraneny uzemi
TTITLE4=Diggy liggy
TTITLE5=Dalsi den
TTITLE6=Vnimam
TTITLE7=Krasnej vzdalenej kout
TTITLE8=Prazdna dlan
TTITLE9=Mam rada desperada
TTITLE10=Dlouha reka
TTITLE11=Fiddlin Man
TTITLE12=Sila ma je v sile volantu
TTITLE13=Johnny B. Goode
EXTD=
EXTT0=
EXTT1=
EXTT2=
EXTT3=
EXTT4=
EXTT5=
EXTT6=
EXTT7=
EXTT8=
EXTT9=
EXTT10=
EXTT11=
EXTT12=
EXTT13=
PLAYORDER=
